<?xml version="1.0" encoding="UTF-8"?>
<svg version="1.1" xmlns="http://www.w3.org/2000/svg" width="500" height="500">
<path d="M0 0 C165 0 330 0 500 0 C500 165 500 330 500 500 C335 500 170 500 0 500 C0 335 0 170 0 0 Z " fill="#FCFBFE" transform="translate(0,0)"/>
<path d="M0 0 C5.74330283 3.91638555 9.37366156 8.64315538 11.05078125 15.3984375 C13.68383595 40.3492419 6.43078338 64.74045701 -0.96972656 88.26953125 C-1.62648885 90.36750371 -2.27155799 92.46917009 -2.90527344 94.57421875 C-12.51873076 126.48353933 -26.28538065 156.55967778 -40.94921875 186.3984375 C-41.44599121 187.41389648 -41.94276367 188.42935547 -42.45458984 189.47558594 C-48.77060224 202.36959535 -55.41932198 215.0514512 -62.39453125 227.60107422 C-63.43940769 229.48112985 -64.481026 231.3629996 -65.51953125 233.24658203 C-86.42562307 271.13887346 -109.79195411 311.23732595 -153.7734375 324.6015625 C-162.01384166 326.66926539 -170.19451401 326.61541176 -178.63671875 326.6484375 C-180.58481445 326.679375 -180.58481445 326.679375 -182.57226562 326.7109375 C-199.3467076 326.77833857 -212.23483011 322.42954453 -224.55078125 310.890625 C-227.02701808 308.31759715 -229.23700419 305.63807595 -231.44921875 302.8359375 C-238.54003029 293.9381529 -246.95704994 286.8737152 -258.44921875 284.98828125 C-266.08435751 284.52301498 -271.90467536 287.32652979 -277.8984375 291.87890625 C-283.52811319 297.03649173 -287.69630431 303.47704531 -292.08764648 309.67358398 C-296.34762761 315.65912708 -300.75971422 321.17804306 -305.94921875 326.3984375 C-306.51640625 327.00042969 -307.08359375 327.60242188 -307.66796875 328.22265625 C-314.28851857 334.67144652 -322.58699405 335.55675842 -331.51171875 335.8359375 C-343.64137873 335.55328078 -353.09574709 330.08245641 -361.88671875 321.9609375 C-372.70277869 310.59129969 -379.88064847 295.76364051 -387.41796875 282.16113281 C-388.78639554 279.69220464 -390.16249467 277.22782994 -391.54296875 274.765625 C-396.78557351 265.39871135 -401.91432274 255.9708707 -407.00976562 246.52319336 C-409.54851095 241.81759499 -412.09495866 237.11848743 -414.70703125 232.453125 C-421.2338059 220.75410095 -427.33799588 208.85559559 -433.35351562 196.88739014 C-434.27790351 195.04843039 -435.20411444 193.21038567 -436.13232422 191.37335205 C-440.68571371 182.34989199 -445.12975977 173.31357924 -449 163.97265625 C-449.42488457 162.94974739 -449.42488457 162.94974739 -449.85835266 161.90617371 C-452.05440483 156.46139964 -453.3466884 151.22441195 -453.94921875 145.3984375 C-454.03792236 144.60091064 -454.12662598 143.80338379 -454.21801758 142.98168945 C-454.96144332 135.47287226 -455.20039311 128.00399064 -455.26171875 120.4609375 C-455.30522461 118.68299805 -455.30522461 118.68299805 -455.34960938 116.86914062 C-455.44160941 103.96790476 -451.94766568 93.13356305 -443.2421875 83.51171875 C-439.31908749 79.96854 -435.90044784 78.91024308 -430.63671875 78.5859375 C-422.06582009 79.04173095 -416.55096807 82.8204621 -410.58203125 88.75 C-400.17091495 100.67415051 -393.72428957 115.54128487 -387.55102539 129.95166016 C-386.01478455 133.53747026 -384.45920233 137.11479709 -382.90490723 140.69281006 C-382.10051227 142.54482419 -381.29704666 144.39724225 -380.49450684 146.25006104 C-376.55638645 155.33431051 -372.51002493 164.3685386 -368.44921875 173.3984375 C-361.54733752 188.76381521 -354.75411752 204.17533024 -348.01171875 219.61132812 C-342.05651219 233.23499686 -335.8866817 246.72422849 -329.25268555 260.03173828 C-328.24674023 262.05354214 -327.24941067 264.0794666 -326.25195312 266.10546875 C-325.6059916 267.40390608 -324.95952644 268.702093 -324.3125 270 C-323.45072144 271.73757568 -323.45072144 271.73757568 -322.5715332 273.51025391 C-321.18581124 275.97723522 -320.18056207 277.69611465 -317.94921875 279.3984375 C-314.65877258 279.84180013 -312.77849445 279.9667988 -310 278.0625 C-303.2723273 270.17071314 -298.16891963 261.32144715 -292.94921875 252.3984375 C-292.10834717 250.96564453 -292.10834717 250.96564453 -291.25048828 249.50390625 C-289.45946912 246.44971599 -287.67228381 243.39331932 -285.88671875 240.3359375 C-285.29213867 239.31822266 -284.69755859 238.30050781 -284.08496094 237.25195312 C-281.39265181 232.63275168 -278.71965865 228.00641882 -276.1171875 223.3359375 C-268.09434326 209.05216991 -268.09434326 209.05216991 -260.94921875 204.3984375 C-260.04171875 203.7590625 -259.13421875 203.1196875 -258.19921875 202.4609375 C-252.50294424 200.59869391 -246.34706964 200.15658337 -240.640625 202.2421875 C-232.37233285 207.01297595 -227.08098161 215.36280681 -222.26171875 223.3359375 C-216.50793946 232.6266681 -210.42207118 241.59480931 -203.94921875 250.3984375 C-203.36817383 251.1929834 -202.78712891 251.9875293 -202.18847656 252.80615234 C-200.37638646 255.26735658 -198.5420753 257.71020796 -196.69921875 260.1484375 C-196.14508301 260.89939697 -195.59094727 261.65035645 -195.02001953 262.42407227 C-190.75533008 267.97498801 -186.17077974 271.28765701 -179.94921875 274.3984375 C-172.91489959 274.46878069 -168.46961244 272.65623772 -163.2734375 267.84765625 C-144.58754009 248.49884452 -138.08991302 213.29176806 -129.88656616 188.21401978 C-128.59116048 184.27524886 -127.22898962 180.37101464 -125.78515625 176.484375 C-123.92050355 171.43940334 -122.43240555 166.33340433 -121.01171875 161.1484375 C-119.26190663 154.88133263 -117.43050854 148.68028457 -115.32421875 142.5234375 C-113.31473841 136.6285379 -111.65649444 130.70652662 -110.09375 124.6796875 C-108.48401065 118.56064216 -106.66249913 112.50165405 -104.86547852 106.43554688 C-103.09300217 100.42110787 -101.3961771 94.39309414 -99.77734375 88.3359375 C-90.89516475 55.25360385 -76.20669516 24.41285618 -45.6484375 5.9296875 C-32.1079232 -1.751762 -15.07472804 -7.34209552 0 0 Z " fill="#0171BC" transform="translate(470.94921875,86.6015625)"/>
<path d="M0 0 C5.74330283 3.91638555 9.37366156 8.64315538 11.05078125 15.3984375 C13.68383595 40.3492419 6.43078338 64.74045701 -0.96972656 88.26953125 C-1.62648885 90.36750371 -2.27155799 92.46917009 -2.90527344 94.57421875 C-12.14653358 125.24812956 -25.17978178 154.28509992 -39.27246094 182.98193359 C-40.79918735 186.0927387 -42.31619571 189.20809852 -43.83203125 192.32421875 C-48.57585257 202.01183512 -53.57117517 211.53917717 -58.82421875 220.9609375 C-59.35990479 221.93144043 -59.89559082 222.90194336 -60.44750977 223.90185547 C-63.18539551 228.7402901 -65.78570425 232.6408002 -69.94921875 236.3984375 C-70.91484727 237.40596938 -71.87002902 238.42358282 -72.81640625 239.44921875 C-73.30544434 239.97845947 -73.79448242 240.5077002 -74.29833984 241.05297852 C-74.80187988 241.60010498 -75.30541992 242.14723145 -75.82421875 242.7109375 C-76.35740723 243.28706787 -76.8905957 243.86319824 -77.43994141 244.45678711 C-80.15158369 247.39763462 -82.78070203 250.37238148 -85.32421875 253.4609375 C-99.20225174 269.30252912 -119.74124863 283.63218053 -140.94921875 286.3984375 C-156.35628295 287.30679049 -167.78739951 284.14692786 -180.94921875 276.3984375 C-180.94921875 276.0684375 -180.94921875 275.7384375 -180.94921875 275.3984375 C-180.29695313 275.30046875 -179.6446875 275.2025 -178.97265625 275.1015625 C-169.34056157 273.4535935 -163.62344637 269.27722155 -157.94921875 261.3984375 C-144.49542059 239.60523903 -137.80797067 212.42986627 -129.88656616 188.21401978 C-128.59116048 184.27524886 -127.22898962 180.37101464 -125.78515625 176.484375 C-123.92050355 171.43940334 -122.43240555 166.33340433 -121.01171875 161.1484375 C-119.26190663 154.88133263 -117.43050854 148.68028457 -115.32421875 142.5234375 C-113.31473841 136.6285379 -111.65649444 130.70652662 -110.09375 124.6796875 C-108.48401065 118.56064216 -106.66249913 112.50165405 -104.86547852 106.43554688 C-103.09300217 100.42110787 -101.3961771 94.39309414 -99.77734375 88.3359375 C-90.89516475 55.25360385 -76.20669516 24.41285618 -45.6484375 5.9296875 C-32.1079232 -1.751762 -15.07472804 -7.34209552 0 0 Z " fill="#0071BC" transform="translate(470.94921875,86.6015625)"/>
<path d="M0 0 C8.26829215 4.77078845 13.55964339 13.12061931 18.37890625 21.09375 C24.13268554 30.3844806 30.21855382 39.35262181 36.69140625 48.15625 C37.27245117 48.9507959 37.85349609 49.7453418 38.45214844 50.56396484 C40.26423854 53.02516908 42.0985497 55.46802046 43.94140625 57.90625 C44.77260986 59.03268921 44.77260986 59.03268921 45.62060547 60.18188477 C48.96451157 64.53430978 52.17525884 67.48133096 56.98339844 70.15722656 C58.69140625 71.15625 58.69140625 71.15625 60.69140625 73.15625 C72.00376286 82.35827545 85.59465545 84.09019622 99.69140625 83.15625 C103.83827399 82.51050904 107.71271934 81.48247897 111.69140625 80.15625 C112.64273438 79.83914063 113.5940625 79.52203125 114.57421875 79.1953125 C138.82860641 70.07566274 158.26162678 49.26034502 173.69140625 29.15625 C174.35140625 29.48625 175.01140625 29.81625 175.69140625 30.15625 C150.49661482 75.15633834 150.49661482 75.15633834 136.0234375 89.7890625 C133.58463147 92.19253945 133.58463147 92.19253945 131.2109375 95.18359375 C117.99591013 110.77527721 96.83195327 121.65549839 76.69140625 124.15625 C71.79703667 124.39109434 66.90340014 124.38708328 62.00390625 124.40625 C60.70517578 124.426875 59.40644531 124.4475 58.06835938 124.46875 C41.2939174 124.53615107 28.40579489 120.18735703 16.08984375 108.6484375 C13.61360692 106.07540965 11.40362081 103.39588845 9.19140625 100.59375 C2.93813021 92.74693261 -3.71237536 87.18408344 -13.27734375 83.9453125 C-15.30859375 83.15625 -15.30859375 83.15625 -17.30859375 81.15625 C-21.88294834 79.8021716 -26.6386447 79.9249969 -31.37109375 79.90625 C-32.24362793 79.90230225 -33.11616211 79.89835449 -34.01513672 79.89428711 C-41.2560151 79.95716672 -48.22456021 80.81960019 -55.33227539 82.17675781 C-62.18788926 83.41630457 -69.03673166 83.7267438 -75.43359375 80.65625 C-76.05234375 80.16125 -76.67109375 79.66625 -77.30859375 79.15625 C-77.30859375 78.82625 -77.30859375 78.49625 -77.30859375 78.15625 C-76.29796875 77.99125 -75.28734375 77.82625 -74.24609375 77.65625 C-63.56995721 74.41718263 -57.56690478 59.10735889 -52.30859375 50.15625 C-51.7465625 49.19960449 -51.18453125 48.24295898 -50.60546875 47.25732422 C-48.81561443 44.20477124 -47.02997517 41.14979702 -45.24609375 38.09375 C-44.35434448 36.56729858 -44.35434448 36.56729858 -43.44458008 35.01000977 C-40.75209866 30.39077811 -38.07908833 25.76432944 -35.4765625 21.09375 C-27.45371826 6.80998241 -27.45371826 6.80998241 -20.30859375 2.15625 C-19.40109375 1.516875 -18.49359375 0.8775 -17.55859375 0.21875 C-11.86231924 -1.64349359 -5.70644464 -2.08560413 0 0 Z " fill="#2490CC" transform="translate(230.30859375,288.84375)"/>
<path d="M0 0 C5.58137284 3.85426971 10.31326351 8.26359616 12 15 C12.92824154 23.73127199 12.7685293 31.46839764 8 39 C7.57589844 39.68449219 7.15179688 40.36898437 6.71484375 41.07421875 C-0.35985029 51.42021979 -10.40075799 56.133586 -22 60 C-34.16917758 60.90970568 -44.6073774 59.52540661 -54.34375 51.64453125 C-59.80152161 46.22537595 -61.16070987 39.9481709 -61.4375 32.5 C-61.33486763 22.61650324 -57.55559327 15.44153965 -51 8.1875 C-38.25865879 -3.72901844 -15.63739111 -9.81680664 0 0 Z " fill="#2490CC" transform="translate(242,199)"/>
<path d="M0 0 C0.66 0.33 1.32 0.66 2 1 C1.09648559 2.63234937 0.1766431 4.25566824 -0.75 5.875 C-1.26046875 6.77992188 -1.7709375 7.68484375 -2.296875 8.6171875 C-4.08687285 11.12154229 -5.21086275 11.85691096 -8 13 C-9.70921589 14.5412312 -9.70921589 14.5412312 -11 16 C-11.66 15.67 -12.32 15.34 -13 15 C-12.39671875 14.33613281 -11.7934375 13.67226563 -11.171875 12.98828125 C-10.37265625 12.10527344 -9.5734375 11.22226562 -8.75 10.3125 C-7.96109375 9.44238281 -7.1721875 8.57226562 -6.359375 7.67578125 C-4.15500436 5.17579137 -2.05866059 2.62054272 0 0 Z " fill="#3497CF" transform="translate(404,318)"/>
<path d="M0 0 C0.66 0.33 1.32 0.66 2 1 C0.68 3.31 -0.64 5.62 -2 8 C-3.32 7.67 -4.64 7.34 -6 7 C-4.02 4.69 -2.04 2.38 0 0 Z " fill="#3F9CD1" transform="translate(404,318)"/>
</svg>
